<svg xmlns="http://www.w3.org/2000/svg" xmlns:xlink="http://www.w3.org/1999/xlink" width="500" zoomAndPan="magnify" viewBox="0 0 375 374.999991" height="500" preserveAspectRatio="xMidYMid meet" version="1.0"><defs><clipPath id="id1"><path d="M 0 29.296875 L 375 29.296875 L 375 345.796875 L 0 345.796875 Z M 0 29.296875 " clip-rule="nonzero"/></clipPath></defs><g clip-path="url(#id1)"><path fill="#4be1df" d="M 345.695312 58.601562 L 316.398438 58.601562 L 316.398438 87.90625 L 345.695312 87.90625 Z M 345.695312 117.207031 L 29.304688 117.207031 L 29.304688 316.472656 L 345.695312 316.472656 Z M 29.304688 87.90625 L 287.101562 87.90625 L 287.101562 58.601562 L 29.304688 58.601562 Z M 374.988281 43.949219 L 374.988281 331.125 C 374.988281 339.21875 368.429688 345.777344 360.339844 345.777344 L 14.660156 345.777344 C 6.570312 345.777344 0.0117188 339.21875 0.0117188 331.125 C 0.0117188 323.050781 0.0117188 50.597656 0.0117188 43.949219 C 0.0117188 35.855469 6.570312 29.296875 14.660156 29.296875 L 360.339844 29.296875 C 368.429688 29.296875 374.988281 35.855469 374.988281 43.949219 Z M 220.839844 285.195312 C 227.851562 289.261719 236.808594 286.851562 240.855469 279.863281 L 273.746094 223.074219 C 276.417969 218.449219 276.371094 212.734375 273.613281 208.160156 L 240.726562 153.597656 C 236.546875 146.667969 227.546875 144.4375 220.617188 148.613281 C 213.691406 152.792969 211.460938 161.796875 215.636719 168.726562 L 244.054688 215.875 L 215.507812 265.171875 C 211.449219 272.175781 213.839844 281.140625 220.839844 285.195312 Z M 101.253906 223.074219 C 98.582031 218.449219 98.628906 212.734375 101.386719 208.160156 L 134.273438 153.597656 C 138.449219 146.667969 147.453125 144.4375 154.378906 148.613281 C 161.304688 152.792969 163.539062 161.796875 159.359375 168.726562 L 130.945312 215.875 L 159.492188 265.171875 C 163.550781 272.175781 161.160156 281.136719 154.15625 285.195312 C 147.144531 289.261719 138.1875 286.847656 134.144531 279.859375 L 101.253906 223.074219 " fill-opacity="1" fill-rule="nonzero"/></g></svg>