<svg xmlns="http://www.w3.org/2000/svg" xmlns:xlink="http://www.w3.org/1999/xlink" width="500" zoomAndPan="magnify" viewBox="0 0 375 374.999991" height="500" preserveAspectRatio="xMidYMid meet" version="1.0"><defs><clipPath id="id1"><path d="M 0 29.296875 L 375 29.296875 L 375 345.796875 L 0 345.796875 Z M 0 29.296875 " clip-rule="nonzero"/></clipPath></defs><g clip-path="url(#id1)"><path fill="#4be1df" d="M 345.695312 87.90625 L 316.398438 87.90625 L 316.398438 58.601562 L 345.695312 58.601562 Z M 345.695312 316.472656 L 29.304688 316.472656 L 29.304688 117.207031 L 345.695312 117.207031 Z M 29.304688 58.601562 L 287.101562 58.601562 L 287.101562 87.90625 L 29.304688 87.90625 Z M 360.339844 29.296875 C 341.886719 29.296875 35.105469 29.296875 14.660156 29.296875 C 6.570312 29.296875 0.0117188 35.855469 0.0117188 43.949219 L 0.0117188 331.125 C 0.0117188 339.21875 6.570312 345.777344 14.660156 345.777344 L 360.339844 345.777344 C 368.429688 345.777344 374.988281 339.21875 374.988281 331.125 C 374.988281 323.0625 374.988281 50.59375 374.988281 43.949219 C 374.988281 35.855469 368.429688 29.296875 360.339844 29.296875 Z M 187.5 205.121094 C 193.960938 205.121094 199.21875 210.378906 199.21875 216.839844 C 199.21875 223.304688 193.960938 228.5625 187.5 228.5625 C 181.039062 228.5625 175.78125 223.304688 175.78125 216.839844 C 175.78125 210.378906 181.039062 205.121094 187.5 205.121094 Z M 126.613281 252.007812 C 130.667969 259.035156 139.632812 261.402344 146.621094 257.367188 L 161.667969 248.679688 C 165.003906 251.390625 168.769531 253.585938 172.851562 255.148438 L 172.851562 272.519531 C 172.851562 280.609375 179.410156 287.171875 187.5 287.171875 C 195.589844 287.171875 202.148438 280.609375 202.148438 272.519531 L 202.148438 255.148438 C 206.226562 253.585938 209.996094 251.390625 213.328125 248.679688 L 228.378906 257.371094 C 235.359375 261.402344 244.328125 259.039062 248.386719 252.007812 C 252.433594 245 250.03125 236.035156 243.027344 231.992188 L 228 223.3125 C 228.332031 221.203125 228.511719 219.042969 228.511719 216.839844 C 228.511719 214.640625 228.332031 212.480469 228 210.371094 L 243.027344 201.691406 C 250.03125 197.644531 252.433594 188.6875 248.386719 181.675781 C 244.34375 174.671875 235.382812 172.265625 228.378906 176.316406 L 213.328125 185.007812 C 209.996094 182.296875 206.226562 180.097656 202.148438 178.53125 L 202.148438 161.164062 C 202.148438 153.070312 195.589844 146.511719 187.5 146.511719 C 179.410156 146.511719 172.851562 153.070312 172.851562 161.164062 L 172.851562 178.53125 C 168.769531 180.097656 165.003906 182.289062 161.667969 185.003906 L 146.621094 176.3125 C 139.613281 172.265625 130.65625 174.667969 126.613281 181.675781 C 122.566406 188.683594 124.964844 197.644531 131.972656 201.691406 L 147 210.371094 C 146.667969 212.480469 146.488281 214.640625 146.488281 216.839844 C 146.488281 219.042969 146.667969 221.203125 147 223.3125 L 131.972656 231.992188 C 124.964844 236.035156 122.566406 244.996094 126.613281 252.007812 " fill-opacity="1" fill-rule="nonzero"/></g></svg>