<svg xmlns="http://www.w3.org/2000/svg" xmlns:xlink="http://www.w3.org/1999/xlink" width="500" zoomAndPan="magnify" viewBox="0 0 375 374.999991" height="500" preserveAspectRatio="xMidYMid meet" version="1.0"><path fill="#4be1df" d="M 345.648438 143.410156 L 243.703125 143.410156 L 243.703125 187.304688 C 243.703125 195.390625 237.144531 201.941406 229.058594 201.941406 L 160.585938 201.941406 L 160.585938 286.816406 L 301.71875 286.816406 C 305.601562 286.816406 309.328125 288.359375 312.070312 291.105469 L 345.648438 324.65625 Z M 214.414062 172.675781 L 214.414062 29.269531 L 29.351562 29.269531 L 29.351562 210.515625 L 62.929688 176.960938 C 65.671875 174.214844 69.398438 172.675781 73.28125 172.675781 Z M 374.933594 128.773438 L 374.933594 359.988281 C 374.933594 373.066406 359.097656 379.488281 349.9375 370.335938 L 295.652344 316.085938 L 145.941406 316.085938 C 137.855469 316.085938 131.296875 309.535156 131.296875 301.449219 L 131.296875 201.941406 L 79.347656 201.941406 L 25.058594 256.191406 C 15.914062 265.328125 0.0625 258.957031 0.0625 245.84375 L 0.0625 14.632812 C 0.0625 6.550781 6.621094 0 14.707031 0 L 229.058594 0 C 237.144531 0 243.703125 6.550781 243.703125 14.632812 L 243.703125 114.140625 L 360.292969 114.140625 C 368.378906 114.140625 374.933594 120.691406 374.933594 128.773438 Z M 170.484375 58.53125 L 73.28125 58.53125 C 65.191406 58.53125 58.636719 65.082031 58.636719 73.164062 C 58.636719 81.246094 65.191406 87.800781 73.28125 87.800781 L 170.484375 87.800781 C 178.570312 87.800781 185.128906 81.246094 185.128906 73.164062 C 185.128906 65.082031 178.570312 58.53125 170.484375 58.53125 Z M 185.128906 128.773438 C 185.128906 136.855469 178.570312 143.410156 170.484375 143.410156 L 73.28125 143.410156 C 65.191406 143.410156 58.636719 136.855469 58.636719 128.773438 C 58.636719 120.691406 65.191406 114.140625 73.28125 114.140625 L 170.484375 114.140625 C 178.570312 114.140625 185.128906 120.691406 185.128906 128.773438 " fill-opacity="1" fill-rule="nonzero"/></svg>